<svg width="20" height="20" viewBox="0 0 20 20" fill="none" xmlns="http://www.w3.org/2000/svg">
<path d="M10 20C15.5228 20 20 15.5228 20 10C20 4.47715 15.5228 0 10 0C4.47715 0 0 4.47715 0 10C0 15.5228 4.47715 20 10 20Z" fill="#0D1E30"/>
<g filter="url(#filter0_d_333_1405)">
<path d="M9.82834 3.78751C10.1277 3.63314 10.4933 3.99001 10.3346 4.28439C10.2415 4.52439 9.89083 4.58814 9.71208 4.40501C9.52271 4.23001 9.58459 3.88251 9.82834 3.78689V3.78751ZM6.60646 4.12876C6.78834 4.05501 7.01896 4.21876 7.00021 4.41439C7.01896 4.62564 6.75646 4.78189 6.57083 4.68126C6.32521 4.58751 6.35334 4.19501 6.60646 4.12876ZM13.2052 4.68689C12.9208 4.65314 12.8758 4.21314 13.149 4.12439C13.3615 4.02314 13.5565 4.21376 13.5877 4.41189C13.5427 4.58064 13.399 4.73564 13.2052 4.68689ZM7.33959 5.47751C7.64396 5.28814 8.07771 5.57001 8.03084 5.91814C8.01521 6.26876 7.54146 6.47251 7.27396 6.23501C7.01521 6.04876 7.05459 5.62126 7.33959 5.47751ZM11.9833 5.67876C12.119 5.33501 12.669 5.32376 12.8233 5.65876C12.9765 5.91939 12.7883 6.24251 12.5165 6.33126C12.1558 6.39751 11.814 6.01376 11.9833 5.67876ZM9.44021 6.31189C9.43709 6.01564 9.71083 5.79564 9.99646 5.77501C10.1865 5.81251 10.3927 5.89189 10.474 6.08001C10.6258 6.34001 10.4908 6.69689 10.2177 6.81626C10.0927 6.88501 9.94396 6.85939 9.80771 6.85126C9.59959 6.75126 9.42396 6.55314 9.44021 6.31189ZM4.64896 6.74314C4.92709 6.57439 5.30209 6.88064 5.19646 7.17814C5.13896 7.43501 4.78771 7.53939 4.58709 7.37564C4.37271 7.22189 4.40646 6.85251 4.64959 6.74251L4.64896 6.74314ZM14.9377 6.74189C15.1733 6.56189 15.5627 6.76876 15.534 7.06126C15.5502 7.32814 15.2133 7.53001 14.9796 7.39251C14.7221 7.27814 14.6952 6.88814 14.9377 6.74251V6.74189ZM10.7877 7.27376C11.1765 7.13626 11.639 7.30064 11.8602 7.64251C12.1527 8.05939 11.9977 8.69439 11.5433 8.93376C11.0733 9.21689 10.3865 8.97751 10.2121 8.46001C10.0152 7.99751 10.3027 7.41876 10.7871 7.27376H10.7877ZM8.50459 7.31939C8.93584 7.11939 9.51646 7.28689 9.72459 7.72064C9.96958 8.14314 9.78021 8.73126 9.34208 8.94939C8.90333 9.19501 8.28396 9.00876 8.07208 8.55564C7.83396 8.11689 8.04521 7.52126 8.50459 7.31939ZM6.21896 8.08751C6.25209 7.81439 6.51396 7.63626 6.77834 7.61751C6.91621 7.63207 7.04507 7.69298 7.14384 7.79028C7.24261 7.88757 7.30545 8.0155 7.32209 8.15314C7.30334 8.43439 7.08271 8.70814 6.78021 8.70689C6.44708 8.73501 6.15521 8.40876 6.21896 8.08751ZM12.9702 7.67751C13.3121 7.48189 13.7865 7.76626 13.7715 8.15251C13.7946 8.56189 13.2696 8.85001 12.9296 8.61001C12.5758 8.41001 12.6033 7.84751 12.9702 7.67751ZM7.57646 9.11939C7.97521 9.01126 8.43271 9.19626 8.62833 9.55751C8.84271 9.92126 8.75521 10.4263 8.42209 10.6938C7.99396 11.085 7.20584 10.9275 6.97834 10.3938C6.71646 9.90439 7.03459 9.24814 7.57584 9.11876L7.57646 9.11939ZM11.9058 9.11751C12.294 9.00814 12.7502 9.15501 12.959 9.50314C13.2352 9.90126 13.1033 10.4956 12.6927 10.7519C12.2615 11.05 11.5952 10.8938 11.3577 10.4275C11.0702 9.94564 11.3596 9.26439 11.9058 9.11751ZM5.00584 9.57126C5.35084 9.44314 5.73334 9.81751 5.59334 10.1544C5.50834 10.4606 5.06896 10.5744 4.84209 10.3481C4.57646 10.1356 4.67459 9.66376 5.00584 9.57126ZM14.3615 10.06C14.355 9.92243 14.4031 9.78785 14.4953 9.68556C14.5875 9.58326 14.7164 9.52152 14.854 9.51376C15.0902 9.55126 15.3202 9.73876 15.3015 9.99189C15.3233 10.3263 14.914 10.5531 14.624 10.3963C14.4883 10.3281 14.419 10.1913 14.3615 10.06ZM3.30896 9.73751C3.51646 9.64814 3.77334 9.82501 3.72584 10.0519C3.71459 10.3088 3.32896 10.4081 3.18771 10.1931C3.06271 10.0438 3.13771 9.81439 3.30896 9.73689V9.73751ZM16.4021 9.73189C16.5483 9.63001 16.7833 9.70314 16.8408 9.87126C16.939 10.055 16.759 10.3063 16.549 10.2756C16.254 10.3019 16.159 9.86001 16.4021 9.73189ZM8.70396 10.965C9.25021 10.8256 9.83771 11.2738 9.84146 11.8275C9.87646 12.3869 9.29771 12.8825 8.73896 12.7538C8.30646 12.685 7.96709 12.275 7.98146 11.8456C7.98021 11.4344 8.29521 11.0519 8.70396 10.965ZM10.8677 10.9644C11.4221 10.8119 12.0271 11.2681 12.0183 11.8344C12.0477 12.3831 11.4871 12.8625 10.9396 12.7531C10.424 12.6881 10.044 12.1313 10.1877 11.6388C10.2602 11.3113 10.539 11.045 10.8677 10.9638V10.9644ZM6.69521 11.305C7.07896 11.2406 7.43896 11.6613 7.28334 12.02C7.16959 12.4025 6.60459 12.5056 6.35459 12.1938C6.06209 11.8938 6.28084 11.3463 6.69521 11.305ZM13.0415 11.3219C13.384 11.1806 13.804 11.4719 13.7777 11.8375C13.7915 12.2394 13.2727 12.5169 12.9383 12.2819C12.559 12.0713 12.6283 11.4506 13.0415 11.3219ZM14.8152 13.0719C14.6815 12.8263 14.9246 12.5006 15.2027 12.5463C15.3402 12.5438 15.4371 12.6506 15.5252 12.7406C15.5433 12.8863 15.574 13.06 15.4508 13.1719C15.284 13.38 14.9058 13.3206 14.8152 13.0719ZM4.64771 12.6144C4.90709 12.445 5.28021 12.6981 5.22146 12.9956C5.19021 13.26 4.85271 13.4106 4.63084 13.2606C4.39209 13.125 4.40084 12.7381 4.64771 12.6144ZM9.76833 13.1663C10.1077 13.0194 10.5402 13.31 10.5077 13.6775C10.5327 14.0838 9.99833 14.365 9.66646 14.1213C9.29771 13.9119 9.35958 13.2956 9.76833 13.1663ZM7.39709 13.7106C7.68583 13.5613 8.07334 13.8194 8.04709 14.1381C8.05584 14.3994 7.79709 14.6219 7.53459 14.5831C7.31771 14.5788 7.17646 14.3869 7.10646 14.205C7.11021 14.0069 7.19334 13.7863 7.39709 13.7113V13.7106ZM12.2008 13.7156C12.4983 13.5344 12.9208 13.7944 12.8927 14.1344C12.9002 14.4906 12.4227 14.7181 12.1458 14.4844C11.8783 14.3013 11.9108 13.8613 12.2008 13.7156ZM13.0365 15.7469C12.904 15.5506 13.0596 15.3138 13.274 15.2688C13.4471 15.3031 13.6302 15.4313 13.5933 15.6275C13.5683 15.8944 13.1721 15.9756 13.0365 15.7475V15.7469ZM6.40459 15.5763C6.45709 15.42 6.58458 15.2656 6.77146 15.3063C7.04333 15.325 7.12396 15.7288 6.88584 15.8531C6.67209 15.995 6.42334 15.8006 6.40459 15.5763ZM9.60458 15.7556C9.65646 15.5244 9.95958 15.4125 10.1596 15.535C10.2921 15.5913 10.3308 15.7363 10.3646 15.86C10.3467 15.9243 10.3301 15.9889 10.3146 16.0538C10.2327 16.1488 10.1271 16.2444 9.99083 16.2413C9.73771 16.2706 9.50896 15.9888 9.60396 15.7556H9.60458Z" fill="black"/>
</g>
<path d="M9.82834 3.78751C10.1277 3.63314 10.4933 3.99001 10.3346 4.28439C10.2415 4.52439 9.89083 4.58814 9.71208 4.40501C9.52271 4.23001 9.58459 3.88251 9.82834 3.78689V3.78751ZM6.60646 4.12876C6.78834 4.05501 7.01896 4.21876 7.00021 4.41439C7.01896 4.62564 6.75646 4.78189 6.57083 4.68126C6.32521 4.58751 6.35334 4.19501 6.60646 4.12876ZM13.2052 4.68689C12.9208 4.65314 12.8758 4.21314 13.149 4.12439C13.3615 4.02314 13.5565 4.21376 13.5877 4.41189C13.5427 4.58064 13.399 4.73564 13.2052 4.68689ZM7.33959 5.47751C7.64396 5.28814 8.07771 5.57001 8.03084 5.91814C8.01521 6.26876 7.54146 6.47251 7.27396 6.23501C7.01521 6.04876 7.05459 5.62126 7.33959 5.47751ZM11.9833 5.67876C12.119 5.33501 12.669 5.32376 12.8233 5.65876C12.9765 5.91939 12.7883 6.24251 12.5165 6.33126C12.1558 6.39751 11.814 6.01376 11.9833 5.67876ZM9.44021 6.31189C9.43709 6.01564 9.71083 5.79564 9.99646 5.77501C10.1865 5.81251 10.3927 5.89189 10.474 6.08001C10.6258 6.34001 10.4908 6.69689 10.2177 6.81626C10.0927 6.88501 9.94396 6.85939 9.80771 6.85126C9.59959 6.75126 9.42396 6.55314 9.44021 6.31189ZM4.64896 6.74314C4.92709 6.57439 5.30209 6.88064 5.19646 7.17814C5.13896 7.43501 4.78771 7.53939 4.58709 7.37564C4.37271 7.22189 4.40646 6.85251 4.64959 6.74251L4.64896 6.74314ZM14.9377 6.74189C15.1733 6.56189 15.5627 6.76876 15.534 7.06126C15.5502 7.32814 15.2133 7.53001 14.9796 7.39251C14.7221 7.27814 14.6952 6.88814 14.9377 6.74251V6.74189ZM10.7877 7.27376C11.1765 7.13626 11.639 7.30064 11.8602 7.64251C12.1527 8.05939 11.9977 8.69439 11.5433 8.93376C11.0733 9.21689 10.3865 8.97751 10.2121 8.46001C10.0152 7.99751 10.3027 7.41876 10.7871 7.27376H10.7877ZM8.50459 7.31939C8.93584 7.11939 9.51646 7.28689 9.72459 7.72064C9.96958 8.14314 9.78021 8.73126 9.34208 8.94939C8.90333 9.19501 8.28396 9.00876 8.07208 8.55564C7.83396 8.11689 8.04521 7.52126 8.50459 7.31939ZM6.21896 8.08751C6.25209 7.81439 6.51396 7.63626 6.77834 7.61751C6.91621 7.63207 7.04507 7.69298 7.14384 7.79028C7.24261 7.88757 7.30545 8.0155 7.32209 8.15314C7.30334 8.43439 7.08271 8.70814 6.78021 8.70689C6.44708 8.73501 6.15521 8.40876 6.21896 8.08751ZM12.9702 7.67751C13.3121 7.48189 13.7865 7.76626 13.7715 8.15251C13.7946 8.56189 13.2696 8.85001 12.9296 8.61001C12.5758 8.41001 12.6033 7.84751 12.9702 7.67751ZM7.57646 9.11939C7.97521 9.01126 8.43271 9.19626 8.62833 9.55751C8.84271 9.92126 8.75521 10.4263 8.42209 10.6938C7.99396 11.085 7.20584 10.9275 6.97834 10.3938C6.71646 9.90439 7.03459 9.24814 7.57584 9.11876L7.57646 9.11939ZM11.9058 9.11751C12.294 9.00814 12.7502 9.15501 12.959 9.50314C13.2352 9.90126 13.1033 10.4956 12.6927 10.7519C12.2615 11.05 11.5952 10.8938 11.3577 10.4275C11.0702 9.94564 11.3596 9.26439 11.9058 9.11751ZM5.00584 9.57126C5.35084 9.44314 5.73334 9.81751 5.59334 10.1544C5.50834 10.4606 5.06896 10.5744 4.84209 10.3481C4.57646 10.1356 4.67459 9.66376 5.00584 9.57126ZM14.3615 10.06C14.355 9.92243 14.4031 9.78785 14.4953 9.68556C14.5875 9.58326 14.7164 9.52152 14.854 9.51376C15.0902 9.55126 15.3202 9.73876 15.3015 9.99189C15.3233 10.3263 14.914 10.5531 14.624 10.3963C14.4883 10.3281 14.419 10.1913 14.3615 10.06ZM3.30896 9.73751C3.51646 9.64814 3.77334 9.82501 3.72584 10.0519C3.71459 10.3088 3.32896 10.4081 3.18771 10.1931C3.06271 10.0438 3.13771 9.81439 3.30896 9.73689V9.73751ZM16.4021 9.73189C16.5483 9.63001 16.7833 9.70314 16.8408 9.87126C16.939 10.055 16.759 10.3063 16.549 10.2756C16.254 10.3019 16.159 9.86001 16.4021 9.73189ZM8.70396 10.965C9.25021 10.8256 9.83771 11.2738 9.84146 11.8275C9.87646 12.3869 9.29771 12.8825 8.73896 12.7538C8.30646 12.685 7.96709 12.275 7.98146 11.8456C7.98021 11.4344 8.29521 11.0519 8.70396 10.965ZM10.8677 10.9644C11.4221 10.8119 12.0271 11.2681 12.0183 11.8344C12.0477 12.3831 11.4871 12.8625 10.9396 12.7531C10.424 12.6881 10.044 12.1313 10.1877 11.6388C10.2602 11.3113 10.539 11.045 10.8677 10.9638V10.9644ZM6.69521 11.305C7.07896 11.2406 7.43896 11.6613 7.28334 12.02C7.16959 12.4025 6.60459 12.5056 6.35459 12.1938C6.06209 11.8938 6.28084 11.3463 6.69521 11.305ZM13.0415 11.3219C13.384 11.1806 13.804 11.4719 13.7777 11.8375C13.7915 12.2394 13.2727 12.5169 12.9383 12.2819C12.559 12.0713 12.6283 11.4506 13.0415 11.3219ZM14.8152 13.0719C14.6815 12.8263 14.9246 12.5006 15.2027 12.5463C15.3402 12.5438 15.4371 12.6506 15.5252 12.7406C15.5433 12.8863 15.574 13.06 15.4508 13.1719C15.284 13.38 14.9058 13.3206 14.8152 13.0719ZM4.64771 12.6144C4.90709 12.445 5.28021 12.6981 5.22146 12.9956C5.19021 13.26 4.85271 13.4106 4.63084 13.2606C4.39209 13.125 4.40084 12.7381 4.64771 12.6144ZM9.76833 13.1663C10.1077 13.0194 10.5402 13.31 10.5077 13.6775C10.5327 14.0838 9.99833 14.365 9.66646 14.1213C9.29771 13.9119 9.35958 13.2956 9.76833 13.1663ZM7.39709 13.7106C7.68583 13.5613 8.07334 13.8194 8.04709 14.1381C8.05584 14.3994 7.79709 14.6219 7.53459 14.5831C7.31771 14.5788 7.17646 14.3869 7.10646 14.205C7.11021 14.0069 7.19334 13.7863 7.39709 13.7113V13.7106ZM12.2008 13.7156C12.4983 13.5344 12.9208 13.7944 12.8927 14.1344C12.9002 14.4906 12.4227 14.7181 12.1458 14.4844C11.8783 14.3013 11.9108 13.8613 12.2008 13.7156ZM13.0365 15.7469C12.904 15.5506 13.0596 15.3138 13.274 15.2688C13.4471 15.3031 13.6302 15.4313 13.5933 15.6275C13.5683 15.8944 13.1721 15.9756 13.0365 15.7475V15.7469ZM6.40459 15.5763C6.45709 15.42 6.58458 15.2656 6.77146 15.3063C7.04333 15.325 7.12396 15.7288 6.88584 15.8531C6.67209 15.995 6.42334 15.8006 6.40459 15.5763ZM9.60458 15.7556C9.65646 15.5244 9.95958 15.4125 10.1596 15.535C10.2921 15.5913 10.3308 15.7363 10.3646 15.86C10.3467 15.9243 10.3301 15.9889 10.3146 16.0538C10.2327 16.1488 10.1271 16.2444 9.99083 16.2413C9.73771 16.2706 9.50896 15.9888 9.60396 15.7556H9.60458Z" fill="white"/>
<defs>
<filter id="filter0_d_333_1405" x="2.12549" y="3.25027" width="15.7427" height="14.4931" filterUnits="userSpaceOnUse" color-interpolation-filters="sRGB">
<feFlood flood-opacity="0" result="BackgroundImageFix"/>
<feColorMatrix in="SourceAlpha" type="matrix" values="0 0 0 0 0 0 0 0 0 0 0 0 0 0 0 0 0 0 127 0" result="hardAlpha"/>
<feOffset dy="0.5"/>
<feGaussianBlur stdDeviation="0.5"/>
<feColorMatrix type="matrix" values="0 0 0 0 0 0 0 0 0 0 0 0 0 0 0 0 0 0 0.204257 0"/>
<feBlend mode="normal" in2="BackgroundImageFix" result="effect1_dropShadow_333_1405"/>
<feBlend mode="normal" in="SourceGraphic" in2="effect1_dropShadow_333_1405" result="shape"/>
</filter>
</defs>
</svg>
