<svg width="101" height="100" viewBox="0 0 101 100" fill="none" xmlns="http://www.w3.org/2000/svg">
<path d="M50.5 100C22.885 100 0.5 77.615 0.5 50C0.5 22.385 22.885 0 50.5 0C78.115 0 100.5 22.385 100.5 50C100.5 77.615 78.115 100 50.5 100ZM50.5 90C61.1087 90 71.2828 85.7857 78.7843 78.2843C86.2857 70.7828 90.5 60.6087 90.5 50C90.5 39.3913 86.2857 29.2172 78.7843 21.7157C71.2828 14.2143 61.1087 10 50.5 10C39.8913 10 29.7172 14.2143 22.2157 21.7157C14.7143 29.2172 10.5 39.3913 10.5 50C10.5 60.6087 14.7143 70.7828 22.2157 78.2843C29.7172 85.7857 39.8913 90 50.5 90ZM45.515 70L24.3 48.785L31.37 41.715L45.515 55.86L73.795 27.575L80.87 34.645L45.515 70Z" fill="#D9E9B7"/>
</svg>
