<svg width="26" height="26" viewBox="0 0 26 26" fill="none" xmlns="http://www.w3.org/2000/svg">
<path d="M0.766198 15.575C0.40671 13.8772 0.40671 12.1229 0.766198 10.425C2.1537 10.5875 3.3662 10.1288 3.7612 9.17376C4.15745 8.21751 3.6262 7.03626 2.5287 6.17001C3.475 4.71542 4.71535 3.47506 6.16995 2.52876C7.03495 3.62501 8.21745 4.15751 9.1737 3.76126C10.1299 3.36501 10.5887 2.15376 10.4249 0.766259C12.1228 0.406771 13.8771 0.406771 15.5749 0.766259C15.4124 2.15376 15.8712 3.36626 16.8262 3.76126C17.7824 4.15751 18.9637 3.62626 19.8299 2.52876C21.2845 3.47506 22.5249 4.71542 23.4712 6.17001C22.375 7.03501 21.8424 8.21751 22.2387 9.17376C22.6349 10.13 23.8462 10.5888 25.2337 10.425C25.5932 12.1229 25.5932 13.8772 25.2337 15.575C23.8462 15.4125 22.6337 15.8713 22.2387 16.8263C21.8424 17.7825 22.3737 18.9638 23.4712 19.83C22.5249 21.2846 21.2845 22.525 19.8299 23.4713C18.9649 22.375 17.7824 21.8425 16.8262 22.2388C15.8699 22.635 15.4112 23.8463 15.5749 25.2338C13.8771 25.5932 12.1228 25.5932 10.4249 25.2338C10.5874 23.8463 10.1287 22.6338 9.1737 22.2388C8.21745 21.8425 7.0362 22.3738 6.16995 23.4713C4.71535 22.525 3.475 21.2846 2.5287 19.83C3.62495 18.965 4.15745 17.7825 3.7612 16.8263C3.36495 15.87 2.1537 15.4113 0.766198 15.575ZM2.99995 13.2625C4.37495 13.6438 5.5087 14.515 6.0712 15.87C6.63245 17.2263 6.4462 18.645 5.7437 19.885C5.8637 20.0125 5.98745 20.1363 6.11495 20.2563C7.3562 19.5538 8.7737 19.3688 10.1299 19.9288C11.4849 20.4913 12.3562 21.625 12.7374 23C12.9124 23.005 13.0874 23.005 13.2624 23C13.6437 21.625 14.5149 20.4913 15.8699 19.9288C17.2262 19.3675 18.6449 19.5538 19.8849 20.2563C20.0124 20.1363 20.1362 20.0125 20.2562 19.885C19.5537 18.6438 19.3687 17.2263 19.9287 15.87C20.4912 14.515 21.6249 13.6438 22.9999 13.2625C23.0049 13.0875 23.0049 12.9125 22.9999 12.7375C21.6249 12.3563 20.4912 11.485 19.9287 10.13C19.3674 8.77376 19.5537 7.35501 20.2562 6.11501C20.1357 5.988 20.012 5.86421 19.8849 5.74376C18.6437 6.44626 17.2262 6.63126 15.8699 6.07126C14.5149 5.50876 13.6437 4.37501 13.2624 3.00001C13.0875 2.99538 12.9124 2.99538 12.7374 3.00001C12.3562 4.37501 11.4849 5.50876 10.1299 6.07126C8.7737 6.63251 7.35495 6.44626 6.11495 5.74376C5.98745 5.86376 5.8637 5.98751 5.7437 6.11501C6.4462 7.35626 6.6312 8.77376 6.0712 10.13C5.5087 11.485 4.37495 12.3563 2.99995 12.7375C2.99495 12.9125 2.99495 13.0875 2.99995 13.2625ZM12.9999 16.75C12.0054 16.75 11.0516 16.3549 10.3483 15.6517C9.64503 14.9484 9.24995 13.9946 9.24995 13C9.24995 12.0054 9.64503 11.0516 10.3483 10.3484C11.0516 9.6451 12.0054 9.25001 12.9999 9.25001C13.9945 9.25001 14.9483 9.6451 15.6516 10.3484C16.3549 11.0516 16.7499 12.0054 16.7499 13C16.7499 13.9946 16.3549 14.9484 15.6516 15.6517C14.9483 16.3549 13.9945 16.75 12.9999 16.75ZM12.9999 14.25C13.3315 14.25 13.6494 14.1183 13.8838 13.8839C14.1183 13.6495 14.2499 13.3315 14.2499 13C14.2499 12.6685 14.1183 12.3505 13.8838 12.1161C13.6494 11.8817 13.3315 11.75 12.9999 11.75C12.6684 11.75 12.3505 11.8817 12.1161 12.1161C11.8816 12.3505 11.7499 12.6685 11.7499 13C11.7499 13.3315 11.8816 13.6495 12.1161 13.8839C12.3505 14.1183 12.6684 14.25 12.9999 14.25Z" fill="url(#paint0_linear_375_18)"/>
<defs>
<linearGradient id="paint0_linear_375_18" x1="4.7152" y1="6.98878" x2="20.115" y2="7.63537" gradientUnits="userSpaceOnUse">
<stop stop-color="#FBB460"/>
<stop offset="1" stop-color="#FFF798"/>
</linearGradient>
</defs>
</svg>
